<svg width="58" height="51" viewBox="0 0 58 51" fill="none" xmlns="http://www.w3.org/2000/svg">
<path d="M50.7485 9.28541L41.4251 16.8729C41.4649 17.106 41.4877 17.3417 41.4936 17.5782C41.4936 18.8445 40.9989 20.0589 40.1185 20.9543C39.238 21.8497 38.0438 22.3527 36.7986 22.3527C35.5535 22.3527 34.3593 21.8497 33.4788 20.9543C32.5983 20.0589 32.1037 18.8445 32.1037 17.5782C32.1094 17.3413 32.1326 17.1053 32.1731 16.872L22.8488 9.28541C21.927 9.66966 20.9045 9.72541 19.9477 9.44356L10.0198 19.5397C10.2686 20.502 10.2149 21.5194 9.86623 22.4491C9.51756 23.3788 8.89143 24.1742 8.07568 24.7236C7.25993 25.2731 6.29551 25.549 5.31772 25.5127C4.33993 25.4764 3.39786 25.1297 2.62367 24.5212C1.84949 23.9128 1.28204 23.0731 1.00096 22.12C0.719877 21.1669 0.739258 20.1483 1.05639 19.207C1.37351 18.2657 1.97247 17.4489 2.76922 16.8714C3.56597 16.2939 4.52053 15.9845 5.49896 15.9867C5.9052 15.9924 6.30896 16.052 6.70009 16.1637L16.628 6.06757C16.5181 5.66981 16.4595 5.2592 16.4539 4.84608C16.4539 3.57979 16.9485 2.36537 17.829 1.46997C18.7094 0.57457 19.9036 0.0715399 21.1488 0.0715399C22.394 0.0715399 23.5882 0.57457 24.4686 1.46997C25.3491 2.36537 25.8438 3.57979 25.8438 4.84608C25.8381 5.08293 25.8149 5.31901 25.7743 5.55231L35.0977 13.1379C36.1884 12.6909 37.4069 12.6909 38.4976 13.1379L47.823 5.55132C47.7829 5.31828 47.7597 5.08257 47.7535 4.84608C47.746 3.81611 48.0638 2.81089 48.66 1.97832C49.2563 1.14575 50.0997 0.529802 51.0659 0.221113C52.0322 -0.0875749 53.0704 -0.0727035 54.0277 0.263539C54.9851 0.599782 55.811 1.23964 56.384 2.08896C56.957 2.93828 57.2468 3.95221 57.2107 4.98155C57.1747 6.01089 56.8147 7.00129 56.1837 7.807C55.5528 8.61272 54.6842 9.19121 53.7058 9.45735C52.7273 9.72348 51.6907 9.66321 50.7485 9.28541Z" fill="#3FA5D5"/>
<path d="M39.9285 31.9018H33.6686C33.2535 31.9018 32.8555 32.0695 32.562 32.3679C32.2685 32.6664 32.1036 33.0712 32.1036 33.4933V49.4084C32.1036 49.8305 32.2685 50.2353 32.562 50.5338C32.8555 50.8323 33.2535 51 33.6686 51H39.9285C40.3436 51 40.7417 50.8323 41.0351 50.5338C41.3286 50.2353 41.4935 49.8305 41.4935 49.4084V33.4933C41.4935 33.0712 41.3286 32.6664 41.0351 32.3679C40.7417 32.0695 40.3436 31.9018 39.9285 31.9018ZM55.5784 19.1697H49.3184C48.9034 19.1697 48.5053 19.3374 48.2118 19.6358C47.9183 19.9343 47.7535 20.3391 47.7535 20.7612V49.4084C47.7535 49.8305 47.9183 50.2353 48.2118 50.5338C48.5053 50.8323 48.9034 51 49.3184 51H55.5784C55.9934 51 56.3915 50.8323 56.685 50.5338C56.9785 50.2353 57.1434 49.8305 57.1434 49.4084V20.7612C57.1434 20.3391 56.9785 19.9343 56.685 19.6358C56.3915 19.3374 55.9934 19.1697 55.5784 19.1697ZM24.2787 19.1697H18.0188C17.6037 19.1697 17.2057 19.3374 16.9122 19.6358C16.6187 19.9343 16.4538 20.3391 16.4538 20.7612V49.4084C16.4538 49.8305 16.6187 50.2353 16.9122 50.5338C17.2057 50.8323 17.6037 51 18.0188 51H24.2787C24.6938 51 25.0918 50.8323 25.3853 50.5338C25.6788 50.2353 25.8437 49.8305 25.8437 49.4084V20.7612C25.8437 20.3391 25.6788 19.9343 25.3853 19.6358C25.0918 19.3374 24.6938 19.1697 24.2787 19.1697ZM8.62887 35.0848H2.36894C1.95388 35.0848 1.55582 35.2525 1.26233 35.551C0.968837 35.8494 0.803955 36.2542 0.803955 36.6763L0.803955 49.4084C0.803955 49.8305 0.968837 50.2353 1.26233 50.5338C1.55582 50.8323 1.95388 51 2.36894 51H8.62887C9.04393 51 9.44199 50.8323 9.73548 50.5338C10.029 50.2353 10.1939 49.8305 10.1939 49.4084V36.6763C10.1939 36.2542 10.029 35.8494 9.73548 35.551C9.44199 35.2525 9.04393 35.0848 8.62887 35.0848Z" fill="#2A86B1"/>
</svg>
